a4c46fad7716ad094eb3c78b74ca0244 *tests/data/fate/copy-apng.apng
6209864 tests/data/fate/copy-apng.apng
#tb 0: 1/25
#media_type 0: video
#codec_id 0: rawvideo
#dimensions 0: 352x288
#sar 0: 0/1
0,          0,          0,        1,   304128, 0x348bb7a0
0,          1,          1,        1,   304128, 0xaf9634d7
0,          2,          2,        1,   304128, 0x81161fd3
0,          3,          3,        1,   304128, 0x6839b383
0,          4,          4,        1,   304128, 0xa55299b8
0,          5,          5,        1,   304128, 0x66fb65b3
0,          6,          6,        1,   304128, 0xe6be2a99
0,          7,          7,        1,   304128, 0xfb33cb55
0,          8,          8,        1,   304128, 0x51ab3d74
0,          9,          9,        1,   304128, 0x67dc44ee
0,         10,         10,        1,   304128, 0x2eac3b50
0,         11,         11,        1,   304128, 0xd4a4c377
0,         12,         12,        1,   304128, 0x1eefe29c
0,         13,         13,        1,   304128, 0x3a84d488
0,         14,         14,        1,   304128, 0x70d3b165
0,         15,         15,        1,   304128, 0x578e58d4
0,         16,         16,        1,   304128, 0x08bba87e
0,         17,         17,        1,   304128, 0xccc86c47
0,         18,         18,        1,   304128, 0x70bf9aa2
0,         19,         19,        1,   304128, 0x3fc3d5b5
0,         20,         20,        1,   304128, 0xef52590b
0,         21,         21,        1,   304128, 0x4f7adde0
0,         22,         22,        1,   304128, 0xc076ef54
0,         23,         23,        1,   304128, 0xed2bba2d
0,         24,         24,        1,   304128, 0x6fce6367
